<?xml version="1.0" encoding="UTF-8" standalone="no"?>
<svg
   xmlns:dc="http://purl.org/dc/elements/1.1/"
   xmlns:cc="http://creativecommons.org/ns#"
   xmlns:rdf="http://www.w3.org/1999/02/22-rdf-syntax-ns#"
   xmlns:svg="http://www.w3.org/2000/svg"
   xmlns="http://www.w3.org/2000/svg"
   viewBox="0 0 534.66669 184"
   height="184"
   width="534.66669"
   xml:space="preserve"
   id="svg2"
   version="1.1"><metadata
     id="metadata8"><rdf:RDF><cc:Work
         rdf:about=""><dc:format>image/svg+xml</dc:format><dc:type
           rdf:resource="http://purl.org/dc/dcmitype/StillImage" /></cc:Work></rdf:RDF></metadata><defs
     id="defs6" /><g
     transform="matrix(1.3333333,0,0,-1.3333333,0,184)"
     id="g10"><g
       transform="scale(0.1)"
       id="g12"><path
         id="path14"
         style="fill:#57b8e3;fill-opacity:1;fill-rule:evenodd;stroke:none"
         d="m 1904.1,1.32813 c -175.82,0.3125 -344.61,7.8125 -506.37,22.54297 -161.4,14.7578 -313,35.8984 -454.8,63.3984 C 801.52,114.73 673.16,147.66 557.93,185.941 442.34,223.949 342.969,266.332 259.84,313.16 176.641,360 112.809,410.27 68.2813,463.949 23.4414,517.301 0.660156,573.121 0,631.41 0.660156,691.641 24.8789,749.301 72.6992,804.301 120.82,859.609 189.059,911.211 277.5,958.98 212.031,915.121 162.07,869.449 127.699,821.949 93.3203,774.488 76.6406,725.699 77.6211,675.621 c 1.9492,-58.59 28.1599,-114.41 78.5899,-167.5 50.078,-52.691 120.98,-101.641 212.617,-146.832 91.723,-44.84 200.703,-84.918 327.113,-120.309 126.36,-35.39 266.989,-65 421.869,-88.91 154.85,-23.91 320.35,-41.09 496.53,-51.558 176.13,-10.4729 359.96,-13.4417 551.48,-8.8323 161.76,4.2617 318.13,13.7503 469.02,28.4803 150.94,14.719 294.54,34.059 430.75,57.961 135.86,23.91 262.38,51.719 379.61,83.481 C 3358.44,221.988 3259.22,186.289 3147.62,154.531 3035.98,122.461 2914.34,94.9219 2782.7,72.0313 2650.74,49.4492 2511.13,32.1094 2363.79,19.9609 2216.09,7.53906 2062.89,1.32813 1904.1,1.32813" /><path
         id="path16"
         style="fill:#004a97;fill-opacity:1;fill-rule:evenodd;stroke:none"
         d="m 2165.82,91.6797 c -191.17,-4.6094 -375.04,-1.6406 -551.48,8.8323 -176.18,10.468 -341.68,27.648 -496.53,51.558 -154.572,23.91 -295.189,53.52 -421.869,88.91 -126.41,35.391 -235.39,75.469 -327.113,120.309 -91.637,45.191 -162.539,94.141 -212.617,146.832 -50.43,53.09 -76.6407,108.91 -78.5899,167.5 -0.9805,49.77 15.6992,98.559 50.0779,146.328 34.371,47.5 84.332,93.012 149.801,136.571 65.469,43.82 144.57,85.07 237.23,123.71 92.649,38.67 196.95,74.18 312.809,106.6 -83.789,-37.35 -155.16,-76.92 -214.098,-118.87 -59.3,-41.87 -104.3,-85.429 -135.043,-130.581 -30.82,-45.199 -45.699,-91.367 -44.726,-138.52 1.949,-58.949 28.168,-114.769 78.598,-167.5 50.07,-52.699 120.968,-101.64 212.609,-146.839 91.723,-44.84 200.711,-84.918 327.111,-120.309 126.68,-35.699 267.31,-65.512 421.88,-89.41 154.84,-23.563 320.35,-40.75 496.52,-51.571 176.45,-10.46 360.31,-13.242 551.52,-8.32 166.02,4.262 326.14,14.11 480.32,29.461 154.22,15.391 300.74,35.539 439.57,60.391 138.47,24.918 266.99,53.859 385.5,86.949 C 3733.67,351.84 3626.76,313.32 3506.6,278.32 3386.45,243.59 3255.31,212.969 3113.24,186.449 2971.13,160.27 2820.51,138.98 2661.41,122.621 2502.27,106.559 2337.07,96.25 2165.82,91.6797" /><path
         id="path18"
         style="fill:#004a97;fill-opacity:1;fill-rule:evenodd;stroke:none"
         d="m 2165.82,1377.93 c 168.98,4.53 331.21,1.64 486.72,-8.83 155.55,-10.19 301.52,-27.03 438.08,-50.62 136.53,-23.25 260.79,-52.39 372.78,-87.39 111.64,-34.72 207.89,-74.18 288.75,-118.39 80.9,-44.18 143.44,-92.15 187.62,-143.872 44.21,-52.066 67.3,-106.949 69.25,-164.527 0.98,-51.762 -15.58,-102.192 -49.61,-151.289 -33.71,-49.102 -82.69,-96.063 -146.83,-140.942 -64.18,-44.84 -141.6,-86.91 -232.31,-126.211 90.39,51.411 159.81,106.25 208.25,164.532 48.12,57.929 71.87,118.007 71.21,180.23 -2,57.617 -25.04,112.469 -69.26,164.539 -44.18,51.719 -106.72,99.68 -187.62,143.86 -80.86,44.22 -177.11,83.68 -288.75,118.4 -111.99,34.69 -236.25,63.83 -372.77,87.38 -136.53,23.25 -282.58,40.16 -438.09,50.63 -155.51,10.12 -317.77,12.93 -486.72,8.32 -153.82,-4.57 -302.18,-15.04 -444.96,-31.45 -142.69,-16.36 -277.46,-37.81 -404.14,-64.33 -127.07,-26.84 -243.94,-57.77 -350.658,-92.81 -40.59,-10.82 -79.731,-22.11 -117.383,-33.87 82.851,41.25 177.262,78.87 283.351,112.97 106.1,34.37 221.84,64.49 347.23,90.35 125.08,25.86 257.85,46.64 398.32,62.38 140.43,16.02 286.29,26.37 437.54,30.94" /><path
         id="path20"
         style="fill:#004a97;fill-opacity:1;fill-rule:evenodd;stroke:none"
         d="m 878.59,746.371 c 0,-14.492 10.43,-21.723 31.289,-21.723 20.82,0 31.25,6.524 31.25,19.493 0,6.91 -3.551,12.578 -10.66,16.988 -7.149,4.383 -15.778,8.051 -25.938,10.98 -10.152,2.93 -20.351,6.371 -30.511,10.231 -10.149,3.871 -18.79,9.961 -25.93,18.25 -7.11,8.238 -10.668,18.59 -10.668,30.93 0,52.621 33.828,78.91 101.527,78.91 24.723,0 43.43,-4.692 56.09,-13.981 12.691,-9.34 19.021,-22.269 19.021,-38.828 0,-6.101 -0.78,-11.883 -2.34,-17.461 -1.6,-5.551 -3.2,-9.461 -4.88,-11.762 l -2.5,-3.789 h -55.668 c 4.609,4.801 6.918,10.903 6.918,18.243 0,13.597 -8.91,20.429 -26.719,20.429 -22.422,0 -33.641,-7.152 -33.641,-21.371 0,-7.14 3.598,-12.808 10.711,-16.988 7.11,-4.184 15.778,-7.5 25.938,-9.883 10.152,-2.418 20.391,-5.391 30.621,-8.988 10.27,-3.551 18.98,-9.449 26.09,-17.731 7.148,-8.281 10.711,-19.019 10.711,-32.23 0,-26.602 -7.973,-46.36 -23.91,-59.25 -15.903,-12.891 -40.43,-19.34 -73.551,-19.34 -33.09,0 -55.711,5.898 -67.891,17.621 -8.988,8.789 -13.519,20.93 -13.519,36.438 0,5.902 0.621,12.269 1.91,19.179 l 0.941,5.043 h 56.559 l -0.621,-3.793 c -0.43,-2.066 -0.629,-3.976 -0.629,-5.617 z m 310.24,-15.43 -8.79,-49.031 h -157.81 l 39.92,226.289 h 157.77 l -8.79,-49.019 h -101.21 l -7.22,-42.418 h 83.63 l -8.83,-49.032 h -83.59 l -6.29,-36.789 z m 67.26,177.258 h 91.14 c 23.9,0 40.86,-5.23 50.93,-15.699 7.54,-7.969 11.33,-18.012 11.33,-30.16 0,-4.219 -0.43,-8.59 -1.29,-13.199 l -4.37,-24.532 c -2.54,-13.629 -6.88,-24.609 -13.05,-33.007 -6.21,-8.364 -13.05,-14.332 -20.58,-17.891 l 28.59,-91.801 h -63.48 l -26.4,84.539 h -19.5 l -12.89,-84.539 h -60.35 z m 71.33,-49.019 h -23.55 l -8.17,-54.692 h 22 c 11.09,0 19.06,2.703 23.86,8.012 4.85,5.352 7.27,12.422 7.27,21.211 0,16.988 -7.15,25.469 -21.41,25.469 z m 177.62,-122.27 h 7.23 l 59.72,171.289 h 61.29 L 1547.46,681.91 h -100.58 l -2.5,226.289 h 61.6 z m 157.77,171.289 h 56.57 L 1679.77,681.91 h -56.88 z M 1803.63,677.5 c -29.96,0 -50.7,6.52 -62.22,19.488 -7.97,9.223 -11.96,22.114 -11.96,38.672 0,7.11 0.75,14.77 2.19,22.93 l 12.89,72.308 c 9.42,53.012 43.48,79.532 102.15,79.532 24.3,0 42.77,-5.2 55.31,-15.59 12.58,-10.352 18.87,-24.531 18.87,-42.57 0,-8.36 -1.21,-16.719 -3.59,-25 -2.43,-8.25 -4.77,-14.379 -7.07,-18.36 l -3.48,-6.289 h -55.63 c 6.92,7.969 10.36,19.258 10.36,33.938 0,7.742 -2,13.871 -5.98,18.402 -3.95,4.488 -9.85,6.758 -17.58,6.758 -21.17,0 -33.75,-11.758 -37.73,-35.239 l -10.98,-63.468 c -1.06,-5.434 -1.6,-10.782 -1.6,-16.024 0,-13.828 8.28,-20.738 24.84,-20.738 19.92,0 31.84,11.211 35.82,33.629 h 56.6 l -1.56,-9.141 c -8.4,-48.828 -41.6,-73.238 -99.65,-73.238 z m 290.43,53.441 -8.83,-49.031 h -157.77 l 39.92,226.289 h 157.78 l -8.79,-49.019 h -101.21 l -7.23,-42.418 h 83.59 l -8.79,-49.032 h -83.59 l -6.29,-36.789 z m 102.78,99.957 c 0,-3.128 0.5,-6.289 1.56,-9.418 h -55.63 c -1.05,3.75 -1.56,8.68 -1.56,14.77 0,22.852 8.28,40.898 24.81,54.219 16.56,13.281 40.35,19.961 71.36,19.961 24.73,0 43.48,-5.2 56.25,-15.59 12.82,-10.352 19.18,-24.641 19.18,-42.891 0,-14.879 -4.92,-28.898 -14.76,-42.109 -9.85,-13.199 -21.17,-19.801 -33.95,-19.801 v -0.937 c 9.85,0 17.7,-3.481 23.56,-10.391 5.89,-6.91 8.82,-15.902 8.82,-27.031 0,-49.45 -32.89,-74.18 -98.71,-74.18 -27.46,0 -47.65,6.289 -60.66,18.871 -9.65,9.219 -14.45,21.988 -14.45,38.359 0,5.86 0.62,12.149 1.87,18.86 h 56.6 c -0.43,-2.301 -0.62,-4.531 -0.62,-6.602 0,-13.828 8.98,-20.738 27.03,-20.738 9.41,0 17.26,2.699 23.55,8.16 6.29,5.43 9.42,12.149 9.42,20.121 0,12.149 -7.93,18.199 -23.87,18.199 h -31.76 l 6.29,34.258 h 25.16 c 10.9,0.242 20.04,3.633 27.5,10.242 7.42,6.598 11.17,13.79 11.17,21.52 0,7.77 -2.38,13.52 -7.07,17.301 -4.73,3.75 -11.72,5.668 -20.94,5.668 -9.22,0 -16.52,-2.77 -21.99,-8.36 -5.43,-5.55 -8.16,-13.05 -8.16,-22.461 z m 278.47,77.301 -39.61,-226.289 h -56.87 l 26.72,150.86 c -5.04,-8.161 -14.26,-16.008 -27.66,-23.551 -13.44,-7.539 -27.46,-11.328 -42.11,-11.328 l -4.1,52.808 c 19.69,0 38.12,6.02 55.31,18.09 17.19,12.031 27.78,25.191 31.76,39.41 z M 2559.57,677.5 c -29.96,0 -50.74,6.52 -62.27,19.488 -7.92,9.223 -11.91,22.114 -11.91,38.672 0,7.11 0.7,14.77 2.19,22.93 l 12.89,72.308 c 9.41,53.012 43.48,79.532 102.15,79.532 24.29,0 42.73,-5.2 55.31,-15.59 12.58,-10.352 18.87,-24.531 18.87,-42.57 0,-8.36 -1.21,-16.719 -3.64,-25 -2.38,-8.25 -4.76,-14.379 -7.07,-18.36 l -3.43,-6.289 h -55.63 c 6.92,7.969 10.35,19.258 10.35,33.938 0,7.742 -1.99,13.871 -5.97,18.402 -3.99,4.488 -9.85,6.758 -17.58,6.758 -21.17,0 -33.75,-11.758 -37.74,-35.239 l -11.01,-63.468 c -1.02,-5.434 -1.56,-10.782 -1.56,-16.024 0,-13.828 8.28,-20.738 24.84,-20.738 19.92,0 31.84,11.211 35.82,33.629 h 56.6 l -1.6,-9.141 C 2650.82,701.91 2617.62,677.5 2559.57,677.5 Z m 275.94,53.441 -8.79,-49.031 H 2683.4 l 39.92,226.289 h 56.56 l -31.09,-177.258 z m 182.93,0 -8.79,-49.031 h -157.77 l 39.92,226.289 h 157.77 l -8.79,-49.019 h -101.21 l -7.23,-42.418 h 83.6 l -8.79,-49.032 h -83.63 l -6.25,-36.789 z m 198.98,-49.031 h -59.72 l 1.87,49.34 h -52.46 l -15.43,-49.34 h -60.04 l 80.78,226.289 h 103.75 z m -52.81,171.289 H 3144.8 L 3120,773.398 h 41.17 z m 240.47,55 h 56.56 L 3422.03,681.91 h -56.87 l -39.61,123.828 -21.37,-123.828 h -56.91 l 39.92,226.289 h 58.47 l 38.99,-115.66 z" /><path
         id="path22"
         style="fill:#004a97;fill-opacity:1;fill-rule:evenodd;stroke:none"
         d="m 1368.36,447.422 v 105.469 h 54.18 c 11.8,0 20.62,-2.813 26.52,-8.442 5.86,-5.578 8.79,-13.59 8.79,-23.937 0,-10.633 -3.16,-18.953 -9.57,-24.961 -6.4,-5.981 -16.17,-8.992 -29.33,-8.992 h -17.86 v -39.137 z m 32.73,84.027 V 507.93 h 8.01 c 6.29,0 10.7,1.09 13.24,3.281 2.54,2.148 3.79,4.961 3.79,8.359 0,3.321 -1.09,6.129 -3.28,8.442 -2.23,2.297 -6.37,3.437 -12.46,3.437 z m 72.19,-84.027 v 76.406 h 27.38 v -12.539 c 2.66,5.43 5.39,9.18 8.17,11.211 2.81,2.031 6.29,3.051 10.39,3.051 4.33,0 9.06,-1.332 14.18,-4.031 l -9.06,-20.86 c -3.44,1.449 -6.18,2.149 -8.21,2.149 -3.83,0 -6.79,-1.559 -8.9,-4.719 -3.01,-4.5 -4.53,-12.82 -4.53,-25.039 v -25.629 z m 63.87,37.969 c 0,11.679 3.94,21.289 11.8,28.828 7.85,7.543 18.47,11.332 31.87,11.332 15.31,0 26.88,-4.461 34.69,-13.321 6.25,-7.152 9.41,-15.941 9.41,-26.41 0,-11.718 -3.9,-21.371 -11.68,-28.871 -7.81,-7.5 -18.59,-11.25 -32.34,-11.25 -12.31,0 -22.23,3.129 -29.81,9.34 -9.29,7.731 -13.94,17.852 -13.94,30.352 z m 29.33,0.078 c 0,-6.797 1.41,-11.84 4.14,-15.117 2.78,-3.243 6.26,-4.883 10.4,-4.883 4.25,0 7.69,1.601 10.43,4.84 2.69,3.211 4.06,8.363 4.06,15.472 0,6.598 -1.37,11.52 -4.1,14.77 -2.74,3.238 -6.14,4.84 -10.16,4.84 -4.26,0 -7.81,-1.641 -10.59,-4.922 -2.77,-3.278 -4.18,-8.278 -4.18,-15 z m 102.27,-67.11 h -29.57 v 105.469 h 27.38 v -11.289 c 3.79,4.731 7.27,7.93 10.43,9.609 4.3,2.262 9.03,3.403 14.18,3.403 10.24,0 18.13,-3.91 23.71,-11.723 5.59,-7.808 8.4,-17.5 8.4,-28.988 0,-12.731 -3.05,-22.418 -9.14,-29.102 -6.09,-6.718 -13.79,-10.039 -23.12,-10.039 -4.5,0 -8.6,0.75 -12.31,2.313 -3.75,1.519 -7.07,3.789 -9.96,6.828 z m -0.23,67.032 c 0,-6.012 1.28,-10.512 3.82,-13.442 2.54,-2.929 5.75,-4.371 9.61,-4.371 3.44,0 6.29,1.402 8.6,4.184 2.26,2.808 3.43,7.578 3.43,14.289 0,6.179 -1.21,10.75 -3.59,13.64 -2.42,2.887 -5.31,4.329 -8.79,4.329 -3.75,0 -6.83,-1.442 -9.33,-4.372 -2.5,-2.929 -3.75,-7.66 -3.75,-14.257 z m 69.06,-37.969 v 76.406 H 1765 v -12.539 c 2.62,5.43 5.35,9.18 8.16,11.211 2.82,2.031 6.25,3.051 10.39,3.051 4.3,0 9.03,-1.332 14.18,-4.031 l -9.06,-20.86 c -3.47,1.449 -6.21,2.149 -8.2,2.149 -3.87,0 -6.84,-1.559 -8.95,-4.719 -3,-4.5 -4.53,-12.82 -4.53,-25.039 v -25.629 z m 152.3,34.258 v -3.321 h -58.71 c 0.55,-4.687 1.8,-8.199 3.83,-10.507 2.81,-3.321 6.52,-4.961 11.05,-4.961 2.9,0 5.63,0.699 8.21,2.148 1.6,0.902 3.28,2.539 5.12,4.84 l 28.86,-2.688 c -4.41,-7.66 -9.76,-13.171 -15.97,-16.492 -6.25,-3.359 -15.2,-5 -26.84,-5 -10.12,0 -18.09,1.41 -23.91,4.262 -5.78,2.848 -10.58,7.379 -14.41,13.59 -3.83,6.219 -5.7,13.519 -5.7,21.918 0,11.953 3.82,21.601 11.44,28.98 7.66,7.391 18.24,11.102 31.72,11.102 10.94,0 19.57,-1.641 25.9,-4.961 6.33,-3.32 11.13,-8.129 14.45,-14.379 3.32,-6.289 4.96,-14.492 4.96,-24.531 z m -58.63,10.699 h 28.83 c -0.55,5.672 -2.07,9.73 -4.57,12.152 -2.46,2.457 -5.71,3.668 -9.73,3.668 -4.65,0 -8.36,-1.828 -11.17,-5.539 -1.76,-2.308 -2.89,-5.711 -3.36,-10.281 z m 78.05,45.473 29.37,15.039 v -29.063 h 16.1 v -21.367 h -16.1 v -27.109 c 0,-3.282 0.31,-5.43 0.9,-6.481 0.98,-1.641 2.66,-2.461 5.04,-2.461 2.19,0 5.19,0.621 9.06,1.871 l 2.19,-20.191 c -7.27,-1.61 -14.02,-2.391 -20.31,-2.391 -7.27,0 -12.66,0.942 -16.1,2.821 -3.47,1.832 -6.01,4.679 -7.65,8.511 -1.68,3.789 -2.5,10 -2.5,18.52 v 26.91 h -10.78 v 21.367 h 10.78 z m 144.25,-56.172 v -3.321 h -58.71 c 0.51,-4.687 1.8,-8.199 3.83,-10.507 2.81,-3.321 6.53,-4.961 11.06,-4.961 2.89,0 5.62,0.699 8.2,2.148 1.6,0.902 3.28,2.539 5.12,4.84 l 28.83,-2.688 c -4.42,-7.66 -9.73,-13.171 -15.94,-16.492 -6.25,-3.359 -15.2,-5 -26.84,-5 -10.12,0 -18.08,1.41 -23.9,4.262 -5.79,2.848 -10.63,7.379 -14.42,13.59 -3.83,6.219 -5.74,13.519 -5.74,21.918 0,11.953 3.83,21.601 11.48,28.98 7.66,7.391 18.21,11.102 31.68,11.102 10.94,0 19.57,-1.641 25.9,-4.961 6.37,-3.32 11.17,-8.129 14.49,-14.379 3.29,-6.289 4.96,-14.492 4.96,-24.531 z m -58.63,10.699 h 28.83 c -0.55,5.672 -2.07,9.73 -4.57,12.152 -2.46,2.457 -5.7,3.668 -9.73,3.668 -4.65,0 -8.36,-1.828 -11.17,-5.539 -1.76,-2.308 -2.89,-5.711 -3.36,-10.281 z m 1.29,40.781 12.07,21.531 h 25.2 l -23.25,-21.531 z m 205.12,-34.449 22.85,-5.121 c -1.17,-4.211 -2.34,-7.57 -3.44,-10.11 -1.09,-2.539 -2.65,-5.55 -4.69,-9.031 l 11.02,-7.539 c 1.33,-0.859 3.05,-1.871 5.2,-3.082 l -15.79,-18.129 c -2.85,1.531 -5.86,3.281 -8.94,5.321 -3.09,2.031 -5.86,3.75 -8.32,5.191 -5.08,-3.359 -10.16,-5.82 -15.24,-7.34 -7.07,-2.109 -15.07,-3.172 -24.02,-3.172 -14.06,0 -24.53,2.93 -31.37,8.75 -6.87,5.86 -10.31,12.973 -10.31,21.332 0,5.981 2.03,11.641 6.06,16.989 4.02,5.351 10.62,9.89 19.76,13.558 -3.83,4.652 -6.44,8.711 -7.89,12.152 -1.44,3.399 -2.15,6.911 -2.15,10.469 0,7.461 2.85,13.629 8.56,18.473 5.7,4.848 14.33,7.269 25.97,7.269 11.84,0 20.55,-2.312 26.1,-6.921 5.58,-4.61 8.36,-10.11 8.36,-16.52 0,-3.629 -0.86,-7.07 -2.58,-10.391 -1.68,-3.281 -3.75,-5.98 -6.13,-8.05 -2.39,-2.071 -6.68,-5.11 -12.89,-9.219 5.15,-5.11 10.5,-9.879 16.05,-14.289 1.48,2.969 2.77,6.09 3.83,9.41 z m -33.67,18.48 c 3.79,2.071 6.72,4.329 8.75,6.758 2.07,2.422 3.12,4.68 3.12,6.832 0,2.27 -0.9,4.18 -2.62,5.739 -1.71,1.57 -4.1,2.351 -7.11,2.351 -2.96,0 -5.39,-0.859 -7.26,-2.621 -1.88,-1.719 -2.81,-3.75 -2.81,-6.09 0,-2.969 2.65,-7.308 7.93,-12.969 z m -10.43,-25.589 c -4.07,-2.852 -6.72,-5.274 -8.05,-7.262 -1.29,-2.039 -1.95,-4.141 -1.95,-6.41 0,-3.52 1.48,-6.641 4.53,-9.379 3.01,-2.731 6.95,-4.102 11.79,-4.102 5.24,0 11.1,2.071 17.62,6.141 -6.25,4.801 -14.22,11.789 -23.94,21.012 z m 141.13,-44.18 v 105.469 h 32.58 V 515.98 h 35.62 v 36.911 h 32.74 V 447.422 h -32.74 v 42.656 h -35.62 v -42.656 z m 144.26,0 -32.11,76.406 h 30.94 l 15.74,-50.859 14.61,50.859 h 28.86 l -30.27,-81.637 c -3.48,-9.339 -6.99,-15.632 -10.59,-18.871 -5.07,-4.609 -12.85,-6.91 -23.24,-6.91 -4.22,0 -10.74,0.578 -19.57,1.711 l -2.3,20.43 c 4.22,-1.321 8.9,-1.992 14.1,-1.992 3.44,0 6.25,0.781 8.4,2.39 2.11,1.563 3.94,4.41 5.43,8.473 z m 119.57,65.117 v 11.289 h 27.38 V 451.68 l 0.08,-3.399 c 0,-4.801 -1.02,-9.371 -3.05,-13.711 -2.03,-4.34 -4.76,-7.851 -8.12,-10.55 -3.4,-2.649 -7.7,-4.61 -12.89,-5.821 -5.2,-1.168 -11.18,-1.789 -17.89,-1.789 -15.36,0 -25.86,2.301 -31.61,6.91 -5.74,4.61 -8.59,10.782 -8.59,18.481 0,0.969 0.04,2.258 0.16,3.898 l 28.39,-3.238 c 0.71,-2.66 1.84,-4.449 3.33,-5.473 2.14,-1.476 4.84,-2.218 8.12,-2.218 4.22,0 7.38,1.128 9.45,3.351 2.07,2.27 3.13,6.219 3.13,11.801 v 11.598 c -2.89,-3.399 -5.74,-5.86 -8.63,-7.418 -4.5,-2.383 -9.38,-3.59 -14.61,-3.59 -10.2,0 -18.44,4.449 -24.73,13.398 -4.45,6.32 -6.72,14.68 -6.72,25.07 0,11.918 2.89,20.981 8.63,27.231 5.78,6.211 13.32,9.34 22.62,9.34 5.94,0 10.86,-1.02 14.69,-3.012 3.87,-2.027 7.5,-5.348 10.86,-10 z m -27.58,-25.777 c 0,-5.512 1.17,-9.614 3.51,-12.274 2.39,-2.648 5.47,-3.976 9.3,-3.976 3.63,0 6.72,1.367 9.18,4.136 2.46,2.774 3.71,6.911 3.71,12.5 0,5.551 -1.33,9.801 -3.9,12.731 -2.58,2.973 -5.75,4.461 -9.5,4.461 -3.75,0 -6.71,-1.371 -8.94,-4.07 -2.23,-2.731 -3.36,-7.219 -3.36,-13.508 z m 73.75,66.129 h 29.2617 V 532.9691 H 2608.36 Z m 0,-29.063 h 29.2617 V 447.4217 H 2608.36 Z m 132.81,-42.148 v -3.321 h -58.71 c 0.51,-4.687 1.8,-8.199 3.79,-10.507 2.85,-3.321 6.52,-4.961 11.09,-4.961 2.89,0 5.63,0.699 8.21,2.148 1.6,0.902 3.28,2.539 5.11,4.84 l 28.83,-2.688 c -4.41,-7.66 -9.72,-13.171 -15.97,-16.492 -6.22,-3.359 -15.16,-5 -26.84,-5 -10.12,0 -18.05,1.41 -23.87,4.262 -5.82,2.848 -10.62,7.379 -14.41,13.59 -3.83,6.219 -5.74,13.519 -5.74,21.918 0,11.953 3.82,21.601 11.48,28.98 7.66,7.391 18.2,11.102 31.68,11.102 10.94,0 19.57,-1.641 25.9,-4.961 6.33,-3.32 11.17,-8.129 14.49,-14.379 3.28,-6.289 4.96,-14.492 4.96,-24.531 z m -58.63,10.699 h 28.83 c -0.59,5.672 -2.11,9.73 -4.57,12.152 -2.46,2.457 -5.71,3.668 -9.73,3.668 -4.65,0 -8.4,-1.828 -11.17,-5.539 -1.76,-2.308 -2.89,-5.711 -3.36,-10.281 z m 12.58,40.859 -22.97,21.453 h 25 l 11.8,-21.453 z m 59.49,-85.816 v 76.406 h 27.27 v -12.457 c 4.06,5.078 8.2,8.707 12.38,10.899 4.18,2.179 9.26,3.281 15.23,3.281 8.13,0 14.46,-2.43 19.03,-7.231 4.6,-4.8 6.87,-12.269 6.87,-22.34 v -48.558 h -29.41 v 41.988 c 0,4.809 -0.9,8.211 -2.66,10.199 -1.8,1.993 -4.26,3.012 -7.5,3.012 -3.55,0 -6.41,-1.371 -8.63,-4.07 -2.19,-2.653 -3.28,-7.5 -3.28,-14.449 v -36.68 z m 183.09,34.258 v -3.321 h -58.72 c 0.55,-4.687 1.8,-8.199 3.83,-10.507 2.81,-3.321 6.53,-4.961 11.1,-4.961 2.85,0 5.58,0.699 8.2,2.148 1.56,0.902 3.28,2.539 5.08,4.84 l 28.86,-2.688 c -4.41,-7.66 -9.72,-13.171 -15.97,-16.492 -6.25,-3.359 -15.2,-5 -26.84,-5 -10.12,0 -18.08,1.41 -23.86,4.262 -5.83,2.848 -10.63,7.379 -14.46,13.59 -3.79,6.219 -5.7,13.519 -5.7,21.918 0,11.953 3.83,21.601 11.48,28.98 7.62,7.391 18.21,11.102 31.68,11.102 10.94,0 19.57,-1.641 25.9,-4.961 6.33,-3.32 11.13,-8.129 14.45,-14.379 3.32,-6.289 4.97,-14.492 4.97,-24.531 z m -58.64,10.699 h 28.87 c -0.59,5.672 -2.11,9.73 -4.57,12.152 -2.46,2.457 -5.74,3.668 -9.77,3.668 -4.64,0 -8.36,-1.828 -11.13,-5.539 -1.8,-2.308 -2.93,-5.711 -3.4,-10.281 z" /></g></g></svg>